<svg width="79" height="80" viewBox="0 0 79 80" fill="none" xmlns="http://www.w3.org/2000/svg">
<path d="M78.5275 58.1925L75.8394 49.313C75.6602 48.5202 74.585 47.8859 73.689 48.2031C72.793 48.3616 72.0761 49.313 72.4346 50.1058L74.0474 55.3384L46.2707 41.2263C46.4499 40.7506 46.4499 40.1164 46.4499 39.6407C46.4499 39.0064 46.2707 38.5307 46.2707 37.8965L73.8682 23.7844L72.2553 29.017C72.0761 29.8098 72.6138 30.7612 73.5098 30.9197C74.4058 31.0783 75.481 30.6026 75.6602 29.8098L78.3483 20.9303C78.5275 20.1375 77.9899 19.1861 77.0939 19.0275L67.0584 16.6491C66.1624 16.4905 65.0872 16.9662 64.908 17.759C64.7288 18.5518 65.2664 19.5032 66.1624 19.6618L72.0761 21.0888L44.4786 35.2009C43.5826 34.4081 42.5074 33.7739 41.2529 33.6153V5.39113L45.5538 9.19664C46.2707 9.83089 47.3459 9.83089 48.0627 9.19664C48.7795 8.56239 48.7795 7.61101 48.0627 6.97676L40.7153 0.475688C39.9985 -0.158563 38.9233 -0.158563 38.2065 0.475688L30.8591 6.97676C30.1422 7.61101 30.1422 8.56239 30.8591 9.19664C31.5759 9.83089 32.6511 9.83089 33.3679 9.19664L37.6688 5.39113V33.6153C36.4144 33.9324 35.3392 34.4081 34.4432 35.2009L6.84563 21.0888L12.7594 19.6618C13.6554 19.5032 14.193 18.5518 14.0138 17.759C13.8346 16.9662 12.7594 16.4905 11.8634 16.6491L1.8279 19.0275C0.931877 19.1861 0.394263 20.1375 0.573468 20.9303L3.26154 29.8098C3.44074 30.6026 4.51597 31.0783 5.41199 30.9197C6.30802 30.7612 7.02484 29.8098 6.66643 29.017L5.05359 23.7844L32.6511 38.055C32.4719 38.5307 32.4719 39.165 32.4719 39.6407C32.4719 40.2749 32.4719 40.7506 32.6511 41.2263L5.05359 55.3384L6.66643 50.1058C6.84563 49.313 6.30802 48.3616 5.41199 48.2031C4.51597 48.0445 3.44074 48.5202 3.26154 49.313L0.573468 58.1925C0.215059 59.1439 0.752672 59.9367 1.8279 60.2538L11.8634 62.6323C12.7594 62.7908 13.8346 62.3151 14.0138 61.5223C14.193 60.7295 13.6554 59.7781 12.7594 59.6196L6.84563 58.1925L34.4432 44.0804C35.3392 44.8732 36.4144 45.5075 37.6688 45.6661V73.8902L33.3679 70.0847C32.6511 69.4505 31.5759 69.4505 30.8591 70.0847C30.1422 70.719 30.1422 71.6703 30.8591 72.3046L38.2065 78.8057C38.9233 79.4399 39.9985 79.4399 40.7153 78.8057L48.0627 72.3046C48.7795 71.6703 48.7795 70.719 48.0627 70.0847C47.3459 69.4505 46.2707 69.4505 45.5538 70.0847L41.2529 73.8902V45.6661C42.5074 45.3489 43.5826 44.8732 44.4786 44.0804L72.0761 58.1925L66.1624 59.6196C65.2664 59.7781 64.7288 60.7295 64.908 61.5223C65.0872 62.3151 66.1624 62.7908 67.0584 62.6323L77.0939 60.2538C78.1691 59.9367 78.7067 59.1439 78.5275 58.1925ZM39.4609 42.8119C37.6688 42.8119 35.8768 41.5434 35.8768 39.6407C35.8768 37.8965 37.4896 36.4694 39.4609 36.4694C41.4321 36.4694 42.8658 37.8965 42.8658 39.6407C43.045 41.3849 41.2529 42.8119 39.4609 42.8119Z" fill="#0872BF"/>
<path d="M19.5678 21.8817L31.2161 29.9684C31.7537 30.4441 32.6497 30.4441 33.1873 30.127C33.9042 29.8099 34.0834 29.1756 34.0834 28.5414L31.9329 15.5392C31.9329 15.2221 31.5745 14.7464 31.2161 14.5879L27.632 11.8923C26.9152 11.258 25.6607 11.4166 25.1231 12.0509C24.4063 12.6851 24.5855 13.795 25.3023 14.2707L28.3488 16.4906L29.7824 24.8944L22.2558 19.6619L21.539 16.1735C21.3598 15.3807 20.4638 14.7464 19.5678 14.905C18.6718 15.0635 17.9549 15.8564 18.1341 16.6492L18.851 20.7718C19.0302 21.4061 19.2094 21.7232 19.5678 21.8817ZM7.74027 41.5435C6.84424 41.2264 5.76901 41.7021 5.4106 42.4949C5.0522 43.2877 5.58981 44.2391 6.48583 44.5562L10.966 45.9833C11.1452 45.9833 11.3244 46.1418 11.6828 46.1418C11.862 46.1418 12.2204 46.1418 12.3996 45.9833L26.1984 41.0678C26.9152 40.7507 27.2736 40.275 27.2736 39.6408C27.2736 39.0065 26.9152 38.3723 26.1984 38.2137L12.2204 33.2983C11.862 33.1397 11.3244 33.1397 10.966 33.2983L6.48583 34.7253C5.58981 35.0424 5.0522 35.9938 5.4106 36.7866C5.76901 37.5795 6.84424 38.0551 7.74027 37.738L11.5036 36.4695L20.4638 39.6408L11.5036 42.812L7.74027 41.5435ZM32.1121 63.7423L34.0834 50.7402C34.2626 50.1059 33.9042 49.4717 33.1873 49.1545C32.4705 48.8374 31.7537 48.8374 31.2161 49.3131L19.5678 57.3998C19.2094 57.7169 19.0302 58.034 18.851 58.3512L18.1341 62.4738C17.9549 63.2666 18.6718 64.218 19.5678 64.218C20.4638 64.3766 21.539 63.7423 21.539 62.9495L22.2558 59.4611L29.7824 54.2285L28.3488 62.6324L25.3023 64.8522C24.5855 65.4865 24.4063 66.4379 25.1231 67.0721C25.8399 67.7064 26.9152 67.8649 27.632 67.2307L31.2161 64.5351C31.7537 64.5351 31.9329 64.0594 32.1121 63.7423ZM59.3512 57.3998L47.7029 49.1545C46.4485 48.3617 44.6564 49.3131 44.8356 50.5816L46.9861 63.5837C46.9861 63.9009 47.3445 64.3766 47.7029 64.5351L51.287 67.2307C52.0038 67.8649 53.2583 67.7064 53.7959 67.0721C54.5127 66.4379 54.3335 65.3279 53.6167 64.8522L50.5702 62.6324L49.1366 54.2285L56.6631 59.4611L57.38 62.9495C57.5592 63.9009 58.4552 64.3766 59.3512 64.218C60.2472 64.0594 60.9641 63.2666 60.7849 62.4738L60.068 58.3512C59.8888 57.8755 59.7096 57.5584 59.3512 57.3998ZM71.1787 37.738C72.0748 38.0551 73.15 37.5795 73.5084 36.7866C73.8668 35.9938 73.3292 35.0424 72.4332 34.7253L67.953 33.2983C67.5946 33.1397 67.057 33.1397 66.6986 33.2983L52.8999 38.2137C52.183 38.5308 51.8246 39.0065 51.8246 39.6408C51.8246 40.275 52.183 40.9093 52.8999 41.0678L66.6986 45.9833C67.057 46.1418 67.5946 46.1418 67.953 45.9833L72.4332 44.5562C73.3292 44.2391 73.8668 43.2877 73.5084 42.4949C73.15 41.7021 72.0748 41.2264 71.1787 41.5435L67.4154 42.812L58.4552 39.6408L67.4154 36.4695L71.1787 37.738ZM46.8069 15.5392L44.8356 28.5414C44.6564 29.1756 45.0148 29.8099 45.7317 30.127C46.2693 30.4441 47.1653 30.4441 47.7029 29.9684L59.3512 21.8817C59.7096 21.5646 59.8888 21.2475 60.068 20.9304L60.7849 16.8077C60.9641 16.0149 60.2472 15.0635 59.3512 15.0635C58.4552 14.905 57.38 15.5392 57.38 16.332L56.6631 19.8204L49.1366 25.053L50.5702 16.6492L53.6167 14.4293C54.3335 13.795 54.5127 12.8437 53.7959 12.2094C53.0791 11.5752 52.0038 11.4166 51.287 12.0509L47.7029 14.7464C47.1653 14.7464 46.9861 15.2221 46.8069 15.5392Z" fill="#0872BF"/>
</svg>
